<?xml version="1.0" encoding="utf-8"?>
<!-- Generator: Adobe Illustrator 16.0.4, SVG Export Plug-In . SVG Version: 6.00 Build 0)  -->
<!DOCTYPE svg PUBLIC "-//W3C//DTD SVG 1.1//EN" "http://www.w3.org/Graphics/SVG/1.1/DTD/svg11.dtd">
<svg version="1.1" id="Layer_1" xmlns="http://www.w3.org/2000/svg" xmlns:xlink="http://www.w3.org/1999/xlink" x="0px" y="0px"
	 width="316px" height="296px" viewBox="238.5 147.5 316 296" enable-background="new 238.5 147.5 316 296" xml:space="preserve">
<g>
	<path fill="#020202" d="M451.478,163.278c18.249,13.066,14.407,32.275,7.599,50.445c-7.063,18.842-18.044,36.219-29.358,58.255
		c27.96,0,50.264-0.063,74.45-0.063c21.333,0,31.898,15.435,31.898,30.01c0,9.309,0,32.999,0,48.908
		c0,14.334-2.174,18.052-8.54,25.475c-4.604,5.366-25.3,29.496-36.413,42.455c-4.261,4.966-11.945,8.292-17.945,8.292
		c-4.667,0-61.373,0-86.333,0c-11.5,0-19.262-7.794-19.262-7.794l-15.385-15.788c0,0-6.793-8.805-6.793-17.639
		c0-7.052,0-74.314,0-101.167c0-6.787,2.647-13.179,6.962-16.839c12.058-10.228,37.132-31.965,53.812-49.662
		c12.653-13.424,23.214-32.269,35.005-53.085C442.272,163.138,446.375,159.625,451.478,163.278z"/>
</g>
<path fill="#020202" d="M256.5,420.808c0,3.313,2.687,6,6,6H306c3.313,0,6-2.687,6-6V279.674c0-3.313-2.687-6-6-6h-43.5
	c-3.313,0-6,2.687-6,6V420.808z"/>
</svg>
