<?xml version="1.0" encoding="utf-8"?>
<!-- Generator: Adobe Illustrator 16.0.4, SVG Export Plug-In . SVG Version: 6.00 Build 0)  -->
<!DOCTYPE svg PUBLIC "-//W3C//DTD SVG 1.1//EN" "http://www.w3.org/Graphics/SVG/1.1/DTD/svg11.dtd">
<svg version="1.1" id="Layer_1" xmlns="http://www.w3.org/2000/svg" xmlns:xlink="http://www.w3.org/1999/xlink" x="0px" y="0px"
	 width="316px" height="296px" viewBox="0 0 316 296" enable-background="new 0 0 316 296" xml:space="preserve">
<g>
	<path fill="#696969" d="M220.478,16.907c18.249,13.066,14.407,32.275,7.6,50.445c-7.063,18.842-18.044,36.219-29.358,58.256
		c27.96,0,50.265-0.063,74.45-0.063c21.333,0,31.898,15.435,31.898,30.01c0,9.31,0,32.999,0,48.908
		c0,14.334-2.175,18.052-8.54,25.475c-4.604,5.366-25.301,29.496-36.413,42.455c-4.261,4.966-11.945,8.292-17.945,8.292
		c-4.667,0-61.373,0-86.333,0c-11.5,0-19.262-7.794-19.262-7.794l-15.385-15.788c0,0-6.793-8.805-6.793-17.639
		c0-7.052,0-74.314,0-101.167c0-6.787,2.646-13.179,6.961-16.839c12.059-10.229,37.133-31.965,53.812-49.662
		c12.653-13.424,23.214-32.27,35.005-53.085C211.272,16.769,215.375,13.255,220.478,16.907z"/>
</g>
<path fill="#696969" d="M25.5,274.438c0,3.313,2.688,6,6,6H75c3.312,0,6-2.687,6-6V133.304c0-3.312-2.688-6-6-6H31.5
	c-3.312,0-6,2.688-6,6V274.438z"/>
</svg>
