<?xml version="1.0" encoding="utf-8"?>
<!-- Generator: Adobe Illustrator 16.0.4, SVG Export Plug-In . SVG Version: 6.00 Build 0)  -->
<!DOCTYPE svg PUBLIC "-//W3C//DTD SVG 1.1//EN" "http://www.w3.org/Graphics/SVG/1.1/DTD/svg11.dtd">
<svg version="1.1" id="Layer_1" xmlns="http://www.w3.org/2000/svg" xmlns:xlink="http://www.w3.org/1999/xlink" x="0px" y="0px"
	 width="508px" height="452.5px" viewBox="220.5 0 508 452.5" enable-background="new 220.5 0 508 452.5" xml:space="preserve">
<title>all</title>
<g>
	<g>
		<g>
			<g>
				<g>
					<g>
						<g>
							<g>
								<g>
									<g>
										<g>
											<g>
												<g>
													<g>
														<g>
															<path fill="#696969" d="M704,199.808v22.176c0,1.031-0.582,2.061-0.717,3.091
																c-3.179,31.993-15.847,62.306-36.378,87.046c-26.925,33.287-61.465,55.239-101.785,68.992
																c-26.349,8.928-53.985,13.468-81.805,13.44c-23.357-0.312-46.664-2.242-69.754-5.779
																c-3.849-0.712-7.825-0.013-11.2,1.972c-24.638,14.876-52.098,24.472-80.64,28.179
																c-9.584,1.193-19.239,1.718-28.896,1.568c-7.419-0.234-13.244-6.438-13.01-13.856c0.08-2.54,0.878-5.006,2.303-7.11
																c1.256-2.019,2.648-3.949,4.167-5.779c12.692-15.795,23.432-33.062,31.987-51.431
																c1.243-1.696,0.875-4.079-0.821-5.322c-0.068-0.05-0.138-0.098-0.209-0.143
																c-15.592-13.295-28.869-29.085-39.29-46.727c-8.815-14.928-15.083-31.219-18.547-48.205
																c-1.299-6.541-2.285-13.44-3.405-19.936v-22.176c0.337-1.254,0.607-2.525,0.807-3.808
																c2.708-26.415,11.946-51.74,26.88-73.696c16.412-23.884,37.811-43.923,62.72-58.733
																c24.001-14.583,50.344-24.905,77.862-30.509c43.021-9.159,87.633-7.621,129.92,4.48
																c23.892,6.693,46.572,17.126,67.2,30.912c22.897,15.057,42.386,34.744,57.21,57.792
																c10.546,16.209,17.976,34.243,21.907,53.177C701.85,186.189,702.835,192.999,704,199.808z"/>
														</g>
													</g>
												</g>
											</g>
										</g>
									</g>
								</g>
							</g>
						</g>
					</g>
				</g>
			</g>
		</g>
	</g>
</g>
</svg>
