<?xml version="1.0" encoding="utf-8"?>
<!-- Generator: Adobe Illustrator 16.0.4, SVG Export Plug-In . SVG Version: 6.00 Build 0)  -->
<!DOCTYPE svg PUBLIC "-//W3C//DTD SVG 1.1//EN" "http://www.w3.org/Graphics/SVG/1.1/DTD/svg11.dtd">
<svg version="1.1" id="Layer_1" xmlns="http://www.w3.org/2000/svg" xmlns:xlink="http://www.w3.org/1999/xlink" x="0px" y="0px"
	 width="386.176px" height="307.328px" viewBox="286.912 70.336 386.176 307.328"
	 enable-background="new 286.912 70.336 386.176 307.328" xml:space="preserve">
<g>
	<g>
		<path fill="#FFFFFF" d="M619.328,377.664H340.672c-29.568,0-53.76-24.192-53.76-53.76V181.888c0-29.568,24.192-53.76,53.76-53.76
			h42.112l8.512-30.016v-0.448c4.928-16.128,19.712-27.328,36.736-27.328h103.936c17.024,0,31.809,11.2,36.736,27.328l8.512,30.464
			h42.112c29.568,0,53.76,24.192,53.76,53.76v142.016C673.088,353.472,649.344,377.664,619.328,377.664z M340.672,163.968
			c-9.856,0-17.92,8.064-17.92,17.92v142.016c0,9.855,8.064,17.92,17.92,17.92h279.104c9.855,0,17.92-8.064,17.92-17.92V181.888
			c0-9.856-8.064-17.92-17.92-17.92h-56c-8.064,0-15.232-5.376-17.473-12.992l-11.647-43.456c0-0.448-1.344-1.344-2.24-1.344
			H428.032c-1.345,0-2.24,0.896-2.688,1.792l-12.096,43.008c-2.24,7.616-9.408,12.992-17.472,12.992H340.672L340.672,163.968z"/>
	</g>
	<g>
		<path fill="#FFFFFF" d="M480,331.072c-51.52,0-93.184-41.664-93.184-93.184c0-51.072,41.665-93.184,93.184-93.184
			s93.184,41.664,93.184,93.184S531.52,331.072,480,331.072z"/>
	</g>
</g>
</svg>
