<?xml version="1.0" encoding="utf-8"?>
<!-- Generator: Adobe Illustrator 16.0.4, SVG Export Plug-In . SVG Version: 6.00 Build 0)  -->
<!DOCTYPE svg PUBLIC "-//W3C//DTD SVG 1.1//EN" "http://www.w3.org/Graphics/SVG/1.1/DTD/svg11.dtd">
<svg version="1.1" id="Layer_1" xmlns="http://www.w3.org/2000/svg" xmlns:xlink="http://www.w3.org/1999/xlink" x="0px" y="0px"
	 width="792px" height="612px" viewBox="0 0 792 612" enable-background="new 0 0 792 612" xml:space="preserve">
<path d="M219.744,97.92h24.48v308.33c0,32.388,26.35,58.87,58.742,58.87h181.171c32.392,0,58.742-26.482,58.742-58.87V97.92h24.48
	c5.405,0,9.792-4.387,9.792-9.792s-4.387-9.792-9.792-9.792h-32.896c-0.455-0.063-0.906-0.137-1.376-0.137s-0.92,0.074-1.376,0.137
	h-57.376v-0.063c0-28.098-22.854-48.896-50.952-48.896h-53.543c-28.098,0-52.177,20.798-52.177,48.896v0.063h-62.272
	c-0.455-0.063-0.906-0.137-1.375-0.137c-0.47,0-0.92,0.074-1.376,0.137h-32.896c-5.405,0-9.792,4.387-9.792,9.792
	S214.339,97.92,219.744,97.92z M523.296,406.25c0,21.592-17.566,39.286-39.158,39.286H302.966
	c-21.591,0-39.158-17.694-39.158-39.286V97.92h259.488V406.25z M337.248,78.272c0-17.298,15.3-29.312,32.593-29.312h53.543
	c17.292,0,31.368,12.015,31.368,29.312v0.063H337.248V78.272z"/>
<path d="M327.456,151.776c-5.405,0-9.792,4.387-9.792,9.792v220.32c0,5.405,4.387,9.792,9.792,9.792s9.792-4.387,9.792-9.792
	v-220.32C337.248,156.163,332.861,151.776,327.456,151.776z"/>
<path d="M396,151.776c-5.405,0-9.792,4.387-9.792,9.792v220.32c0,5.405,4.387,9.792,9.792,9.792s9.792-4.387,9.792-9.792v-220.32
	C405.792,156.163,401.405,151.776,396,151.776z"/>
<path d="M454.752,161.568v220.32c0,5.405,4.387,9.792,9.792,9.792s9.792-4.387,9.792-9.792v-220.32c0-5.405-4.387-9.792-9.792-9.792
	S454.752,156.163,454.752,161.568z"/>
</svg>
