<?xml version="1.0" encoding="utf-8"?>
<!-- Generator: Adobe Illustrator 16.0.4, SVG Export Plug-In . SVG Version: 6.00 Build 0)  -->
<!DOCTYPE svg PUBLIC "-//W3C//DTD SVG 1.1//EN" "http://www.w3.org/Graphics/SVG/1.1/DTD/svg11.dtd">
<svg version="1.1" id="Layer_1" xmlns="http://www.w3.org/2000/svg" xmlns:xlink="http://www.w3.org/1999/xlink" x="0px" y="0px"
	 width="792px" height="612px" viewBox="0 0 792 612" enable-background="new 0 0 792 612" xml:space="preserve">
<rect display="none" fill="#000002" width="792" height="612"/>
<g display="none">
	<g display="inline" enable-background="new    ">
		<path fill="#FFFFFF" d="M158.252,238.851c11.093-11.337,25.206-17.006,42.339-17.006c22.925,0,39.688,7.601,50.289,22.8
			c5.854,8.535,8.997,17.1,9.429,25.695h-28.78c-1.831-6.602-4.182-11.586-7.049-14.95c-5.126-5.98-12.724-8.97-22.792-8.97
			c-10.253,0-18.34,4.221-24.259,12.661c-5.919,8.441-8.878,20.386-8.878,35.834c0,15.45,3.123,27.021,9.369,34.713
			c6.246,7.694,14.182,11.54,23.81,11.54c9.871,0,17.397-3.301,22.578-9.904c2.863-3.551,5.24-8.877,7.129-15.979h28.593
			c-2.466,15.014-8.768,27.224-18.904,36.629c-10.138,9.406-23.125,14.109-38.963,14.109c-19.598,0-35.005-6.354-46.221-19.062
			c-11.216-12.77-16.824-30.275-16.824-52.514C139.116,270.403,145.495,251.871,158.252,238.851z"/>
		<path fill="#FFFFFF" d="M301.448,362.192h-26.63V224.461h26.63V362.192z"/>
		<path fill="#FFFFFF" d="M405.473,349.732c-8.597,10.61-21.646,15.917-39.152,15.917c-17.505,0-30.555-5.307-39.151-15.917
			c-8.597-10.611-12.895-23.387-12.895-38.325c0-14.688,4.298-27.416,12.895-38.184c8.596-10.768,21.646-16.152,39.151-16.152
			c17.504,0,30.555,5.385,39.152,16.152c8.597,10.768,12.896,23.496,12.896,38.184C418.367,326.347,414.068,339.121,405.473,349.732
			z M384.168,335.015c4.173-5.536,6.261-13.403,6.261-23.606c0-10.201-2.088-18.055-6.261-23.559
			c-4.174-5.504-10.154-8.258-17.94-8.258c-7.788,0-13.783,2.754-17.987,8.258c-4.205,5.504-6.307,13.357-6.307,23.559
			c0,10.203,2.102,18.07,6.307,23.606c4.205,5.536,10.2,8.304,17.987,8.304C374.014,343.317,379.994,340.551,384.168,335.015z"/>
		<path fill="#FFFFFF" d="M512.67,266.183c6.668,5.513,10.002,14.655,10.002,27.425v68.585h-27.284v-61.951
			c0-5.356-0.711-9.468-2.134-12.334c-2.598-5.232-7.545-7.85-14.84-7.85c-8.968,0-15.12,3.831-18.459,11.494
			c-1.732,4.05-2.598,9.22-2.598,15.511v55.131h-26.632V260.529h25.79v14.856c3.41-5.232,6.639-9.001,9.678-11.306
			c5.457-4.111,12.375-6.167,20.75-6.167C497.426,257.913,506,260.669,512.67,266.183z"/>
		<path fill="#FFFFFF" d="M606.914,262.405c7.104,3.183,12.972,8.205,17.601,15.067c4.171,6.052,6.876,13.069,8.114,21.056
			c0.717,4.68,1.009,11.418,0.878,20.214h-74.181c0.413,10.218,3.964,17.38,10.65,21.491c4.067,2.556,8.962,3.831,14.684,3.831
			c6.065,0,10.996-1.557,14.787-4.673c2.066-1.682,3.896-4.018,5.48-7.008h27.188c-0.717,6.043-4.008,12.181-9.872,18.408
			c-9.124,9.904-21.896,14.856-38.318,14.856c-13.555,0-25.514-4.178-35.875-12.531c-10.36-8.354-15.542-21.946-15.542-40.776
			c0-17.643,4.677-31.173,14.031-40.587c9.353-9.414,21.494-14.123,36.421-14.123C591.825,257.632,599.81,259.224,606.914,262.405z
			 M567.074,285.41c-3.765,3.88-6.127,9.134-7.094,15.766h45.879c-0.484-7.069-2.849-12.434-7.095-16.094
			c-4.245-3.66-9.511-5.491-15.794-5.491C576.136,279.591,570.837,281.531,567.074,285.41z"/>
	</g>
	<path display="inline" fill="#FFFFFF" d="M335.5,234.035h58v11h-58V234.035z"/>
</g>
<g>
	<g>
		<path fill="#FFFFFF" d="M54.249,222.893h99.704v24.57H83.278v32.159h61.947v24.286H83.278v58.627H54.249V222.893z"/>
		<path fill="#FFFFFF" d="M193.882,362.535h-27.037V222.703h27.037V362.535z"/>
		<path fill="#FFFFFF" d="M302.02,349.886c-8.729,10.772-21.979,16.159-39.75,16.159c-17.772,0-31.021-5.387-39.749-16.159
			c-8.728-10.773-13.091-23.743-13.091-38.91c0-14.912,4.364-27.834,13.091-38.766c8.728-10.932,21.977-16.398,39.749-16.398
			c17.771,0,31.021,5.466,39.75,16.398c8.727,10.932,13.09,23.854,13.09,38.766C315.109,326.143,310.746,339.112,302.02,349.886z
			 M280.389,334.942c4.236-5.621,6.357-13.608,6.357-23.967c0-10.357-2.121-18.33-6.357-23.918
			c-4.238-5.588-10.309-8.384-18.214-8.384c-7.907,0-13.993,2.795-18.262,8.384c-4.269,5.588-6.404,13.561-6.404,23.918
			c0,10.358,2.135,18.346,6.404,23.967c4.269,5.621,10.355,8.43,18.262,8.43C270.08,343.372,276.151,340.563,280.389,334.942z"/>
		<path fill="#FFFFFF" d="M356.937,259.131v62.327c0,5.882,0.691,10.31,2.076,13.281c2.455,5.25,7.268,7.874,14.442,7.874
			c9.187,0,15.48-3.73,18.879-11.194c1.762-4.047,2.644-9.392,2.644-16.032v-56.255h27.416v103.404h-26.278v-14.609
			c-0.252,0.317-0.883,1.266-1.891,2.846c-1.01,1.582-2.207,2.974-3.595,4.175c-4.227,3.794-8.31,6.389-12.251,7.778
			c-3.943,1.391-8.562,2.087-13.859,2.087c-15.262,0-25.541-5.502-30.839-16.506c-2.965-6.072-4.445-15.021-4.445-26.848v-62.327
			H356.937z"/>
		<path fill="#FFFFFF" d="M527.586,265.061c6.77,5.597,10.155,14.879,10.155,27.843v69.632H510.04v-62.896
			c0-5.438-0.722-9.613-2.166-12.522c-2.638-5.312-7.66-7.969-15.067-7.969c-9.104,0-15.35,3.89-18.74,11.668
			c-1.758,4.112-2.637,9.361-2.637,15.748v55.971h-27.037V259.321h26.184v15.084c3.462-5.312,6.738-9.138,9.824-11.479
			c5.541-4.174,12.563-6.261,21.066-6.261C512.109,256.665,520.814,259.463,527.586,265.061z"/>
		<path fill="#FFFFFF" d="M620.265,296.224c-0.507-3.856-1.807-7.335-3.898-10.435c-3.045-4.174-7.767-6.261-14.169-6.261
			c-9.131,0-15.376,4.522-18.734,13.566c-1.776,4.795-2.662,11.166-2.662,19.114c0,7.571,0.886,13.659,2.662,18.264
			c3.232,8.602,9.319,12.901,18.259,12.901c6.34,0,10.841-1.707,13.503-5.123c2.662-3.415,4.279-7.841,4.851-13.281h27.605
			c-0.634,8.223-3.609,16.002-8.926,23.338c-8.484,11.827-21.05,17.739-37.699,17.739c-16.65,0-28.899-4.933-36.75-14.799
			s-11.775-22.658-11.775-38.376c0-17.737,4.336-31.54,13.009-41.406s20.638-14.799,35.896-14.799
			c12.978,0,23.596,2.91,31.858,8.728c8.261,5.819,13.15,16.096,14.672,30.831H620.265z"/>
		<path fill="#FFFFFF" d="M729.378,261.226c7.213,3.231,13.17,8.331,17.868,15.297c4.235,6.144,6.982,13.269,8.239,21.377
			c0.728,4.75,1.023,11.592,0.891,20.522h-75.312c0.419,10.373,4.024,17.645,10.812,21.818c4.13,2.595,9.099,3.89,14.908,3.89
			c6.158,0,11.162-1.58,15.012-4.743c2.1-1.707,3.955-4.079,5.564-7.115h27.604c-0.728,6.136-4.069,12.365-10.023,18.689
			c-9.263,10.056-22.229,15.083-38.902,15.083c-13.762,0-25.902-4.24-36.423-12.722c-10.52-8.482-15.778-22.282-15.778-41.399
			c0-17.912,4.747-31.648,14.244-41.206c9.496-9.558,21.822-14.338,36.978-14.338C714.059,256.38,722.165,257.996,729.378,261.226z
			 M688.931,284.582c-3.821,3.938-6.222,9.273-7.202,16.006h46.579c-0.492-7.177-2.893-12.624-7.202-16.339
			c-4.311-3.716-9.656-5.575-16.036-5.575C698.13,278.674,692.75,280.644,688.931,284.582z"/>
	</g>
	<rect x="235.5" y="232.5" fill="#FFFFFF" width="52" height="13"/>
</g>
</svg>
