<?xml version="1.0" encoding="utf-8"?>
<!-- Generator: Adobe Illustrator 16.0.4, SVG Export Plug-In . SVG Version: 6.00 Build 0)  -->
<!DOCTYPE svg PUBLIC "-//W3C//DTD SVG 1.1//EN" "http://www.w3.org/Graphics/SVG/1.1/DTD/svg11.dtd">
<svg version="1.1" id="Layer_1" xmlns="http://www.w3.org/2000/svg" xmlns:xlink="http://www.w3.org/1999/xlink" x="0px" y="0px"
	 width="792px" height="612px" viewBox="0 0 792 612" enable-background="new 0 0 792 612" xml:space="preserve">
<g enable-background="new    ">
	<path fill="#FFFFFF" d="M158.252,238.851c11.093-11.337,25.206-17.006,42.339-17.006c22.925,0,39.688,7.601,50.289,22.8
		c5.854,8.535,8.997,17.1,9.429,25.695h-28.78c-1.831-6.602-4.182-11.586-7.049-14.95c-5.126-5.98-12.724-8.97-22.792-8.97
		c-10.253,0-18.34,4.221-24.259,12.661c-5.919,8.441-8.878,20.386-8.878,35.834c0,15.45,3.123,27.021,9.369,34.713
		c6.246,7.694,14.182,11.54,23.81,11.54c9.871,0,17.397-3.301,22.578-9.904c2.863-3.551,5.24-8.877,7.129-15.979h28.593
		c-2.466,15.014-8.768,27.224-18.904,36.629c-10.138,9.406-23.125,14.109-38.963,14.109c-19.598,0-35.005-6.354-46.221-19.062
		c-11.216-12.77-16.824-30.275-16.824-52.514C139.116,270.403,145.495,251.871,158.252,238.851z"/>
	<path fill="#FFFFFF" d="M301.448,362.192h-26.63V224.461h26.63V362.192z"/>
	<path fill="#FFFFFF" d="M405.473,349.732c-8.597,10.611-21.647,15.917-39.152,15.917c-17.505,0-30.555-5.306-39.151-15.917
		c-8.597-10.611-12.895-23.386-12.895-38.325c0-14.688,4.298-27.416,12.895-38.184c8.596-10.768,21.646-16.152,39.151-16.152
		c17.504,0,30.555,5.385,39.152,16.152c8.596,10.768,12.895,23.496,12.895,38.184C418.367,326.347,414.068,339.121,405.473,349.732z
		 M384.168,335.015c4.173-5.537,6.261-13.404,6.261-23.607c0-10.201-2.088-18.055-6.261-23.559
		c-4.174-5.504-10.154-8.258-17.94-8.258c-7.788,0-13.783,2.754-17.987,8.258c-4.205,5.504-6.307,13.357-6.307,23.559
		c0,10.203,2.102,18.07,6.307,23.607c4.205,5.536,10.2,8.303,17.987,8.303C374.014,343.317,379.994,340.551,384.168,335.015z"/>
	<path fill="#FFFFFF" d="M512.67,266.183c6.668,5.513,10.002,14.655,10.002,27.425v68.585h-27.284v-61.951
		c0-5.356-0.711-9.468-2.134-12.334c-2.598-5.232-7.545-7.85-14.84-7.85c-8.968,0-15.12,3.831-18.459,11.494
		c-1.732,4.05-2.598,9.22-2.598,15.511v55.13h-26.631V260.529h25.79v14.856c3.41-5.232,6.638-9.001,9.677-11.306
		c5.457-4.111,12.375-6.167,20.75-6.167C497.426,257.913,506,260.669,512.67,266.183z"/>
	<path fill="#FFFFFF" d="M606.914,262.405c7.104,3.183,12.972,8.205,17.601,15.067c4.171,6.052,6.876,13.069,8.114,21.056
		c0.717,4.68,1.009,11.418,0.878,20.214h-74.181c0.413,10.218,3.964,17.38,10.651,21.491c4.067,2.556,8.961,3.831,14.683,3.831
		c6.066,0,10.996-1.556,14.787-4.672c2.067-1.682,3.896-4.018,5.481-7.008h27.188c-0.717,6.043-4.008,12.18-9.872,18.408
		c-9.124,9.904-21.896,14.856-38.318,14.856c-13.555,0-25.514-4.177-35.875-12.531c-10.361-8.354-15.542-21.946-15.542-40.776
		c0-17.643,4.677-31.173,14.031-40.587c9.353-9.414,21.494-14.123,36.421-14.123C591.825,257.632,599.81,259.224,606.914,262.405z
		 M567.074,285.41c-3.764,3.88-6.127,9.134-7.094,15.766h45.879c-0.484-7.069-2.848-12.434-7.094-16.094s-9.511-5.491-15.794-5.491
		C576.136,279.591,570.837,281.531,567.074,285.41z"/>
</g>
<path fill="#FFFFFF" d="M335.5,234.035h58v11h-58V234.035z"/>
</svg>
